<mxfile host="app.diagrams.net" modified="2023-11-09T22:28:05.999Z" agent="Mozilla/5.0 (Windows NT 10.0; Win64; x64) AppleWebKit/537.36 (KHTML, like Gecko) Chrome/119.0.0.0 Safari/537.36" version="22.1.0" etag="VKaLsEOS-xtAypRa9REF" type="github">
  <diagram name="Страница — 1" id="DyOJRZVxHQLlu9L35N8u">
    <mxGraphModel>
      <root>
        <mxCell id="0" />
        <mxCell id="1" parent="0" />
      </root>
    </mxGraphModel>
  </diagram>
</mxfile>
